HIERARCHY
ROOT Hips
{
	OFFSET 0.000000 0.000000 0.000000
	CHANNELS 6 Xposition Yposition Zposition Zrotation Yrotation Xrotation 
	JOINT LHipJoint
	{
		OFFSET 0.000000 0.000000 0.000000
		CHANNELS 3 Zrotation Yrotation Xrotation
		JOINT LeftUpLeg
		{
			OFFSET 1.363060 -1.794630 0.839290
			CHANNELS 3 Zrotation Yrotation Xrotation
			JOINT LeftLeg
			{
				OFFSET 2.448110 -6.726130 0.000000
				CHANNELS 3 Zrotation Yrotation Xrotation
				JOINT LeftFoot
				{
					OFFSET 2.562200 -7.039590 0.000000
					CHANNELS 3 Zrotation Yrotation Xrotation
					JOINT LeftToeBase
					{
						OFFSET 0.157640 -0.433110 2.322550
						CHANNELS 3 Zrotation Yrotation Xrotation
						End Site
						{
							OFFSET 0.000000 0.000000 0.000000
						}
					}
				}
			}
		}
	}
	JOINT RHipJoint
	{
		OFFSET 0.000000 0.000000 0.000000
		CHANNELS 3 Zrotation Yrotation Xrotation
		JOINT RightUpLeg
		{
			OFFSET -1.305520 -1.794630 0.839290
			CHANNELS 3 Zrotation Yrotation Xrotation
			JOINT RightLeg
			{
				OFFSET -2.542530 -6.985550 0.000000
				CHANNELS 3 Zrotation Yrotation Xrotation
				JOINT RightFoot
				{
					OFFSET -2.568260 -7.056230 0.000000
					CHANNELS 3 Zrotation Yrotation Xrotation
					JOINT RightToeBase
					{
						OFFSET -0.164730 -0.452590 2.363150
						CHANNELS 3 Zrotation Yrotation Xrotation
						End Site
						{
							OFFSET 0.000000 0.000000 0.000000
						}
					}
				}
			}
		}
	}
}
MOTION
Frames: 16
Frame Time: 0.008333
5.407085 15.965382 0.866085 150.025612 -87.741121 -111.377611 -9.822106 -2.604615 1.695379 -7.913722 -10.089029 -74.650010 2.475243 4.408269 79.434976 3.496209 17.527201 -5.369323 1.419200 -0.000000 -27.337700 8.227679 -0.204984 2.021557 10.211945 8.787701 -52.225375 1.929439 -2.522578 47.612084 -2.872605 -4.072580 -28.747551 2.280800 0.000000 -54.917400
5.278178 16.053882 0.856015 151.330994 -87.704858 -112.923819 -9.811763 -2.533413 1.784984 -7.996539 -9.928507 -74.608624 2.361295 4.392251 78.541296 3.500615 17.421445 -5.943014 1.262000 -0.000000 -25.689700 8.194473 -0.343868 2.051025 10.379122 8.502429 -50.402012 2.061507 -2.273329 45.242616 -2.796278 -3.938555 -27.903539 2.147601 -0.000000 -55.383700
5.148686 16.139250 0.846764 152.119028 -87.709944 -113.955493 -9.790417 -2.461257 1.891180 -8.030576 -9.798249 -74.562846 2.223168 4.361599 77.427768 3.487290 17.185927 -6.585185 1.079001 -0.000000 -24.733300 8.168033 -0.481418 2.070791 10.556409 8.193955 -48.579326 2.182872 -2.026797 42.883666 -2.715433 -3.836891 -26.976190 2.012400 -0.000000 -55.922100
5.019182 16.221625 0.838409 152.516121 -87.748813 -114.610299 -9.759610 -2.387906 2.005845 -8.027425 -9.687131 -74.485587 2.060237 4.315127 76.074065 3.454729 16.821966 -7.232128 0.892000 0.000000 -24.391700 8.147613 -0.615636 2.072702 10.742890 7.853890 -46.738450 2.295550 -1.783191 40.528253 -2.628012 -3.756751 -25.967927 1.872400 -0.000000 -56.581600
4.889335 16.300635 0.830762 152.276978 -87.828145 -114.638781 -9.713608 -2.313349 2.133330 -7.997850 -9.609160 -74.373259 1.875482 4.247307 74.467709 3.404326 16.347437 -7.804796 0.728300 0.000001 -24.669100 8.140261 -0.747208 2.059978 10.929584 7.473235 -44.890282 2.401465 -1.545115 38.184589 -2.533339 -3.685908 -24.899731 1.727399 0.000000 -57.273000
4.759488 16.376162 0.823672 151.310165 -87.945783 -113.958259 -9.650267 -2.237055 2.268613 -7.958183 -9.558322 -74.208279 1.671304 4.156618 72.606140 3.336845 15.778752 -8.257552 0.602100 0.000001 -25.440000 8.149948 -0.874935 2.030054 11.111356 7.045109 -43.024841 2.502218 -1.313469 35.851238 -2.430207 -3.612561 -23.785416 1.576800 -0.000000 -58.005500
4.629499 16.447819 0.817039 149.461049 -88.102079 -112.412795 -9.565956 -2.158010 2.408688 -7.922563 -9.531332 -73.986089 1.451190 4.042222 70.496535 3.254290 15.137552 -8.559359 0.521700 0.000000 -26.553500 8.182200 -0.997317 1.983335 11.282234 6.567668 -41.143660 2.598662 -1.089256 33.532375 -2.318225 -3.526219 -22.642586 1.422000 -0.000000 -58.749300
4.499560 16.515318 0.810712 146.576660 -88.293758 -109.853544 -9.457330 -2.072913 2.550128 -7.905728 -9.519844 -73.703021 1.218328 3.905100 68.153135 3.158994 14.446193 -8.697145 0.487900 0.000000 -27.845300 8.242826 -1.111617 1.921085 11.437276 6.043315 -39.246889 2.690329 -0.872982 31.234503 -2.197393 -3.418874 -21.485632 1.264800 0.000001 -59.492501
4.369298 16.578154 0.804666 142.641532 -88.512797 -106.257334 -9.324644 -1.975280 2.694242 -7.915094 -9.512389 -73.372711 0.975621 3.748830 65.597002 3.053971 13.727042 -8.670503 0.497401 -0.000000 -29.173000 8.333716 -1.215356 1.849746 11.574985 5.489069 -37.346533 2.775086 -0.663630 28.970121 -2.069657 -3.289704 -20.326961 1.108800 -0.000000 -60.199100
4.239294 16.636436 0.798644 137.582201 -88.744080 -101.565580 -9.166266 -1.857950 2.828125 -7.973517 -9.487248 -72.970203 0.721957 3.577555 62.844102 2.941547 13.000403 -8.500692 0.540300 -0.000000 -30.412500 8.460518 -1.300911 1.759594 11.689159 4.895914 -35.421134 2.851341 -0.461281 26.742470 -1.932977 -3.127184 -19.166386 0.954400 -0.000000 -60.937400
4.108821 16.689523 0.792925 131.833759 -88.970113 -96.194480 -8.995833 -1.714382 2.962290 -8.075205 -9.430864 -72.533530 0.458109 3.398332 59.920120 2.825227 12.284845 -8.201902 0.610600 0.000000 -31.526500 8.608819 -1.370359 1.664192 11.782623 4.303031 -33.501486 2.915551 -0.263558 24.574216 -1.792496 -2.943427 -18.010497 0.806100 -0.000001 -61.636700
3.978041 16.737383 0.787578 125.800467 -89.175078 -90.551520 -8.825636 -1.545742 3.092854 -8.228542 -9.326157 -72.057874 0.181303 3.215062 56.842671 2.707291 11.594625 -7.804092 0.698700 0.000000 -32.501699 8.765845 -1.425551 1.561100 11.853887 3.719618 -31.584757 2.966792 -0.071096 22.474059 -1.649503 -2.741228 -16.855153 0.665100 0.000000 -62.325500
3.846856 16.779910 0.782812 119.949193 -89.351484 -85.102259 -8.669231 -1.359795 3.220057 -8.434715 -9.162960 -71.542431 -0.110733 3.028029 53.629326 2.589733 10.940297 -7.337699 0.796300 -0.000000 -33.363900 8.916207 -1.473777 1.452477 11.904069 3.157513 -29.675408 3.005503 0.114111 20.449825 -1.506296 -2.528537 -15.696211 0.532300 -0.000000 -63.019101
3.715382 16.817201 0.778794 114.616940 -89.499773 -80.188759 -8.534432 -1.168597 3.339397 -8.694645 -8.934940 -70.972129 -0.419890 2.833522 50.295905 2.473776 10.327992 -6.836096 0.895400 0.000000 -34.152100 9.050433 -1.521649 1.336004 11.935013 2.617199 -27.767961 3.033402 0.288346 18.505893 -1.364040 -2.309846 -14.529975 0.407999 -0.000000 -63.730500
3.583225 16.849004 0.776081 110.129602 -89.631509 -76.129664 -8.428656 -0.987317 3.452131 -8.991476 -8.637799 -70.353529 -0.745251 2.626140 46.864978 2.360053 9.757104 -6.331278 0.989600 0.000000 -34.909599 9.157895 -1.578747 1.217858 11.959760 2.115802 -25.869881 3.053040 0.449257 16.640529 -1.226170 -2.100148 -13.352974 0.292400 -0.000000 -64.465000
3.450653 16.875373 0.774913 106.581294 -89.756514 -73.028028 -8.351865 -0.827888 3.553921 -9.315036 -8.269264 -69.673485 -1.084880 2.399072 43.357605 2.248658 9.224601 -5.854542 1.072400 0.000000 -35.663600 9.237451 -1.648829 1.096815 11.986467 1.649510 -23.974379 3.067261 0.594001 14.852693 -1.093180 -1.900761 -12.164681 0.185300 -0.000000 -65.237300
